<svg width="240" height="152" viewBox="0 0 240 152" fill="none" xmlns="http://www.w3.org/2000/svg">
<path d="M148.996 115.091H164.677V125.545C164.677 126.931 165.227 128.26 166.208 129.241C167.188 130.221 168.517 130.771 169.904 130.771H180.357C181.744 130.771 183.073 130.221 184.053 129.241C185.034 128.26 185.584 126.931 185.584 125.545V109.864C188.019 109.053 190.232 107.686 192.046 105.872C193.861 104.057 195.227 101.845 196.038 99.4101H201.265C202.651 99.4101 203.981 98.8594 204.961 97.8791C205.941 96.8989 206.492 95.5694 206.492 94.1832V83.7294C206.492 82.3431 205.941 81.0136 204.961 80.0334C203.981 79.0531 202.651 78.5025 201.265 78.5025H196.038C196.038 74.4452 195.093 70.4437 193.279 66.8147C191.465 63.1858 188.83 60.0292 185.584 57.5948V41.9141C182.338 41.9141 179.137 42.6698 176.234 44.1214C173.331 45.573 170.806 47.6805 168.858 50.2772L167.29 52.3679H148.996C140.678 52.3679 132.701 55.6721 126.82 61.5535C120.939 67.4349 117.635 75.4118 117.635 83.7294V88.9563C117.635 93.0135 118.579 97.0151 120.394 100.644C122.208 104.273 124.843 107.43 128.088 109.864V125.545C128.088 126.931 128.639 128.26 129.619 129.241C130.599 130.221 131.929 130.771 133.315 130.771H143.769C145.155 130.771 146.485 130.221 147.465 129.241C148.445 128.26 148.996 126.931 148.996 125.545V115.091Z" stroke="#DF6F84" stroke-width="12.9457" stroke-linecap="round" stroke-linejoin="round"/>
<path d="M175.13 78.5025H175.188" stroke="#DF6F84" stroke-width="12.9457" stroke-linecap="round" stroke-linejoin="round"/>
<path d="M101.954 68.0486V73.2755C101.954 76.048 103.055 78.707 105.016 80.6674C106.976 82.6279 109.635 83.7293 112.408 83.7293H117.635" stroke="#DF6F84" stroke-width="12.9457" stroke-linecap="round" stroke-linejoin="round"/>
<path d="M7.5 64.6451H30.7245C32.2099 64.6462 33.6574 65.1145 34.8621 65.9836C36.0667 66.8528 36.9675 68.0789 37.4369 69.4882L53.7082 125.666C53.9542 126.394 54.4303 127.022 55.0645 127.455C55.6987 127.889 56.4568 128.104 57.2242 128.069C57.9916 128.034 58.7267 127.75 59.3187 127.26C59.9106 126.771 60.3272 126.102 60.5056 125.354L84.1124 13.4592C84.4775 11.9073 85.3556 10.524 86.6047 9.53325C87.8537 8.54251 89.4005 8.00227 90.9948 8H232.5" stroke="#DF6F84" stroke-width="14.1613" stroke-linecap="round" stroke-linejoin="round"/>
</svg>
